<?xml version="1.0" encoding="UTF-8" standalone="no"?>
<svg
   version="1.1"
   width="210mm"
   height="297mm"
   viewBox="0 0 210000010 297000000"
   id="svg1148"
   sodipodi:docname="ringDemo-F_Mask_mirrored.svg"
   inkscape:version="1.2.1 (9c6d41e410, 2022-07-14)"
   xmlns:inkscape="http://www.inkscape.org/namespaces/inkscape"
   xmlns:sodipodi="http://sodipodi.sourceforge.net/DTD/sodipodi-0.dtd"
   xmlns="http://www.w3.org/2000/svg"
   xmlns:svg="http://www.w3.org/2000/svg"
   xmlns:rdf="http://www.w3.org/1999/02/22-rdf-syntax-ns#"
   xmlns:cc="http://creativecommons.org/ns#"
   xmlns:dc="http://purl.org/dc/elements/1.1/">
  <defs
     id="defs1152" />
  <sodipodi:namedview
     id="namedview1150"
     pagecolor="#ffffff"
     bordercolor="#666666"
     borderopacity="1.0"
     inkscape:showpageshadow="2"
     inkscape:pageopacity="0.0"
     inkscape:pagecheckerboard="0"
     inkscape:deskcolor="#d1d1d1"
     inkscape:document-units="cm"
     showgrid="false"
     inkscape:zoom="1.0759722"
     inkscape:cx="560.88809"
     inkscape:cy="396.85039"
     inkscape:window-width="1858"
     inkscape:window-height="1057"
     inkscape:window-x="54"
     inkscape:window-y="-8"
     inkscape:window-maximized="1"
     inkscape:current-layer="g1146" />
  <title
     id="title2">SVG Picture created as ringDemo-F_Mask.svg date 2023/06/20 12:35:41 </title>
  <desc
     id="desc4">Picture generated by PCBNEW </desc>
  <g
     style="fill:#000000;fill-opacity:0;stroke:#000000;stroke-width:150000;stroke-linecap:round;stroke-linejoin:round;stroke-opacity:1"
     id="g1146"
     transform="translate(-43563475,-25166151)">
    <g
       id="g932" />
    <g
       style="fill:#000000;fill-opacity:0;stroke:#000000;stroke-width:1;stroke-linecap:round;stroke-linejoin:round;stroke-opacity:1"
       id="g934" />
    <g
       style="fill:#000000;fill-opacity:1;stroke:#000000;stroke-width:1;stroke-linecap:round;stroke-linejoin:round;stroke-opacity:1"
       id="g944">
      <path
         style="fill:#000000;fill-opacity:1;fill-rule:evenodd;stroke:#000000;stroke-width:1;stroke-linecap:round;stroke-linejoin:round;stroke-opacity:1"
         d="m 105132200,57549000 -67350,13397 -57100,38152 -38150,57099 -13400,67352 v 250000 l 13400,67352 38150,57099 57100,38152 67350,13397 h 250000 l 67350,-13397 57100,-38152 38150,-57099 13400,-67352 v -250000 l -13400,-67352 -38150,-57099 -57100,-38152 -67350,-13397 z"
         id="path936" />
      <path
         style="fill:#000000;fill-opacity:1;fill-rule:evenodd;stroke:#000000;stroke-width:1;stroke-linecap:round;stroke-linejoin:round;stroke-opacity:1"
         d="m 105132200,58449000 -67350,13397 -57100,38152 -38150,57099 -13400,67352 v 250000 l 13400,67352 38150,57099 57100,38152 67350,13397 h 250000 l 67350,-13397 57100,-38152 38150,-57099 13400,-67352 v -250000 l -13400,-67352 -38150,-57099 -57100,-38152 -67350,-13397 z"
         id="path938" />
      <path
         style="fill:#000000;fill-opacity:1;fill-rule:evenodd;stroke:#000000;stroke-width:1;stroke-linecap:round;stroke-linejoin:round;stroke-opacity:1"
         d="m 104232200,58449000 -67350,13397 -57100,38152 -38150,57099 -13400,67352 v 250000 l 13400,67352 38150,57099 57100,38152 67350,13397 h 250000 l 67350,-13397 57100,-38152 38150,-57099 13400,-67352 v -250000 l -13400,-67352 -38150,-57099 -57100,-38152 -67350,-13397 z"
         id="path940" />
      <path
         style="fill:#000000;fill-opacity:1;fill-rule:evenodd;stroke:#000000;stroke-width:1;stroke-linecap:round;stroke-linejoin:round;stroke-opacity:1"
         d="m 104232200,57549000 -67350,13397 -57100,38152 -38150,57099 -13400,67352 v 250000 l 13400,67352 38150,57099 57100,38152 67350,13397 h 250000 l 67350,-13397 57100,-38152 38150,-57099 13400,-67352 v -250000 l -13400,-67352 -38150,-57099 -57100,-38152 -67350,-13397 z"
         id="path942" />
    </g>
    <g
       id="g946" />
    <g
       style="fill:#000000;fill-opacity:1;stroke:#000000;stroke-width:1;stroke-linecap:round;stroke-linejoin:round;stroke-opacity:1"
       id="g952">
      <path
         style="fill:#000000;fill-opacity:1;fill-rule:evenodd;stroke:#000000;stroke-width:1;stroke-linecap:round;stroke-linejoin:round;stroke-opacity:1"
         d="m 106708200,70525000 -13400,-67352 -38150,-57099 -57100,-38152 -67350,-13397 h -250000 l -67350,13397 -57100,38152 -38150,57099 -13400,67352 v 350000 l 13400,67352 38150,57099 57100,38152 67350,13397 h 250000 l 67350,-13397 57100,-38152 38150,-57099 13400,-67352 z"
         id="path948" />
      <path
         style="fill:#000000;fill-opacity:1;fill-rule:evenodd;stroke:#000000;stroke-width:1;stroke-linecap:round;stroke-linejoin:round;stroke-opacity:1"
         d="m 105708200,70525000 -13400,-67352 -38150,-57099 -57100,-38152 -67350,-13397 h -250000 l -67350,13397 -57100,38152 -38150,57099 -13400,67352 v 350000 l 13400,67352 38150,57099 57100,38152 67350,13397 h 250000 l 67350,-13397 57100,-38152 38150,-57099 13400,-67352 z"
         id="path950" />
    </g>
    <g
       id="g954" />
    <g
       style="fill:#000000;fill-opacity:1;stroke:#000000;stroke-width:1;stroke-linecap:round;stroke-linejoin:round;stroke-opacity:1"
       id="g964">
      <path
         style="fill:#000000;fill-opacity:1;fill-rule:evenodd;stroke:#000000;stroke-width:1;stroke-linecap:round;stroke-linejoin:round;stroke-opacity:1"
         d="m 112558200,65625000 -13400,-67352 -38150,-57099 -57100,-38152 -67350,-13397 h -250000 l -67350,13397 -57100,38152 -38150,57099 -13400,67352 v 250000 l 13400,67352 38150,57099 57100,38152 67350,13397 h 250000 l 67350,-13397 57100,-38152 38150,-57099 13400,-67352 z"
         id="path956" />
      <path
         style="fill:#000000;fill-opacity:1;fill-rule:evenodd;stroke:#000000;stroke-width:1;stroke-linecap:round;stroke-linejoin:round;stroke-opacity:1"
         d="m 111658200,65625000 -13400,-67352 -38150,-57099 -57100,-38152 -67350,-13397 h -250000 l -67350,13397 -57100,38152 -38150,57099 -13400,67352 v 250000 l 13400,67352 38150,57099 57100,38152 67350,13397 h 250000 l 67350,-13397 57100,-38152 38150,-57099 13400,-67352 z"
         id="path958" />
      <path
         style="fill:#000000;fill-opacity:1;fill-rule:evenodd;stroke:#000000;stroke-width:1;stroke-linecap:round;stroke-linejoin:round;stroke-opacity:1"
         d="m 111658200,64725000 -13400,-67352 -38150,-57099 -57100,-38152 -67350,-13397 h -250000 l -67350,13397 -57100,38152 -38150,57099 -13400,67352 v 250000 l 13400,67352 38150,57099 57100,38152 67350,13397 h 250000 l 67350,-13397 57100,-38152 38150,-57099 13400,-67352 z"
         id="path960" />
      <path
         style="fill:#000000;fill-opacity:1;fill-rule:evenodd;stroke:#000000;stroke-width:1;stroke-linecap:round;stroke-linejoin:round;stroke-opacity:1"
         d="m 112558200,64725000 -13400,-67352 -38150,-57099 -57100,-38152 -67350,-13397 h -250000 l -67350,13397 -57100,38152 -38150,57099 -13400,67352 v 250000 l 13400,67352 38150,57099 57100,38152 67350,13397 h 250000 l 67350,-13397 57100,-38152 38150,-57099 13400,-67352 z"
         id="path962" />
    </g>
    <g
       id="g966" />
    <g
       style="fill:#000000;fill-opacity:1;stroke:#000000;stroke-width:1;stroke-linecap:round;stroke-linejoin:round;stroke-opacity:1"
       id="g976">
      <path
         style="fill:#000000;fill-opacity:1;fill-rule:evenodd;stroke:#000000;stroke-width:1;stroke-linecap:round;stroke-linejoin:round;stroke-opacity:1"
         d="m 100650240,71850063 65030,22074 68520,-4492 61600,-30373 45270,-51630 125000,-216506 22080,-65027 -4490,-68525 -30380,-61591 -51630,-45278 -216500,-125000 -65030,-22074 -68530,4492 -61590,30373 -45270,51630 -125000,216506 -22080,65027 4490,68525 30380,61591 51630,45278 z"
         id="path968" />
      <path
         style="fill:#000000;fill-opacity:1;fill-rule:evenodd;stroke:#000000;stroke-width:1;stroke-linecap:round;stroke-linejoin:round;stroke-opacity:1"
         d="m 101100240,71070641 65030,22074 68520,-4492 61600,-30373 45270,-51630 125000,-216506 22080,-65027 -4490,-68525 -30380,-61591 -51630,-45278 -216500,-125000 -65030,-22074 -68530,4492 -61590,30373 -45270,51630 -125000,216506 -22080,65027 4490,68525 30380,61591 51630,45278 z"
         id="path970" />
      <path
         style="fill:#000000;fill-opacity:1;fill-rule:evenodd;stroke:#000000;stroke-width:1;stroke-linecap:round;stroke-linejoin:round;stroke-opacity:1"
         d="m 101879660,71520641 65030,22074 68530,-4492 61590,-30373 45280,-51630 125000,-216506 22070,-65027 -4490,-68525 -30380,-61591 -51630,-45278 -216500,-125000 -65030,-22074 -68520,4492 -61590,30373 -45280,51630 -125000,216506 -22080,65027 4500,68525 30370,61591 51630,45278 z"
         id="path972" />
      <path
         style="fill:#000000;fill-opacity:1;fill-rule:evenodd;stroke:#000000;stroke-width:1;stroke-linecap:round;stroke-linejoin:round;stroke-opacity:1"
         d="m 101429660,72300063 65030,22074 68530,-4492 61590,-30373 45280,-51630 125000,-216506 22070,-65027 -4490,-68525 -30380,-61591 -51630,-45278 -216500,-125000 -65030,-22074 -68520,4492 -61590,30373 -45280,51630 -125000,216506 -22080,65027 4500,68525 30370,61591 51630,45278 z"
         id="path974" />
    </g>
    <g
       id="g978" />
    <g
       style="fill:#000000;fill-opacity:1;stroke:#000000;stroke-width:1;stroke-linecap:round;stroke-linejoin:round;stroke-opacity:1"
       id="g988">
      <path
         style="fill:#000000;fill-opacity:1;fill-rule:evenodd;stroke:#000000;stroke-width:1;stroke-linecap:round;stroke-linejoin:round;stroke-opacity:1"
         d="m 108401240,72175063 51630,-45278 30380,-61591 4490,-68525 -22080,-65027 -125000,-216506 -45270,-51630 -61600,-30373 -68520,-4492 -65030,22074 -216500,125000 -51630,45278 -30380,61591 -4490,68525 22080,65027 125000,216506 45270,51630 61590,30373 68530,4492 65030,-22074 z"
         id="path980" />
      <path
         style="fill:#000000;fill-opacity:1;fill-rule:evenodd;stroke:#000000;stroke-width:1;stroke-linecap:round;stroke-linejoin:round;stroke-opacity:1"
         d="m 107951240,71395641 51630,-45278 30380,-61591 4490,-68525 -22080,-65027 -125000,-216506 -45270,-51630 -61600,-30373 -68520,-4492 -65030,22074 -216500,125000 -51630,45278 -30380,61591 -4490,68525 22080,65027 125000,216506 45270,51630 61590,30373 68530,4492 65030,-22074 z"
         id="path982" />
      <path
         style="fill:#000000;fill-opacity:1;fill-rule:evenodd;stroke:#000000;stroke-width:1;stroke-linecap:round;stroke-linejoin:round;stroke-opacity:1"
         d="m 108730660,70945641 51630,-45278 30380,-61591 4490,-68525 -22070,-65027 -125000,-216506 -45280,-51630 -61590,-30373 -68530,-4492 -65030,22074 -216500,125000 -51630,45278 -30370,61591 -4500,68525 22080,65027 125000,216506 45280,51630 61590,30373 68520,4492 65030,-22074 z"
         id="path984" />
      <path
         style="fill:#000000;fill-opacity:1;fill-rule:evenodd;stroke:#000000;stroke-width:1;stroke-linecap:round;stroke-linejoin:round;stroke-opacity:1"
         d="m 109180660,71725063 51630,-45278 30380,-61591 4490,-68525 -22070,-65027 -125000,-216506 -45280,-51630 -61590,-30373 -68530,-4492 -65030,22074 -216500,125000 -51630,45278 -30370,61591 -4500,68525 22080,65027 125000,216506 45280,51630 61590,30373 68520,4492 65030,-22074 z"
         id="path986" />
    </g>
    <g
       id="g990" />
    <g
       style="fill:#000000;fill-opacity:1;stroke:#000000;stroke-width:1;stroke-linecap:round;stroke-linejoin:round;stroke-opacity:1"
       id="g1008">
      <path
         style="fill:#000000;fill-opacity:1;fill-rule:evenodd;stroke:#000000;stroke-width:1;stroke-linecap:round;stroke-linejoin:round;stroke-opacity:1"
         d="m 100256200,69430000 3880,19517 11060,16545 16540,11056 19520,3882 h 1700000 l 19520,-3882 16540,-11056 11060,-16545 3880,-19517 v -650000 l -3880,-19517 -11060,-16545 -16540,-11056 -19520,-3882 h -1700000 l -19520,3882 -16540,11056 -11060,16545 -3880,19517 z"
         id="path992" />
      <path
         style="fill:#000000;fill-opacity:1;fill-rule:evenodd;stroke:#000000;stroke-width:1;stroke-linecap:round;stroke-linejoin:round;stroke-opacity:1"
         d="m 100256200,68160000 3880,19517 11060,16545 16540,11056 19520,3882 h 1700000 l 19520,-3882 16540,-11056 11060,-16545 3880,-19517 v -650000 l -3880,-19517 -11060,-16545 -16540,-11056 -19520,-3882 h -1700000 l -19520,3882 -16540,11056 -11060,16545 -3880,19517 z"
         id="path994" />
      <path
         style="fill:#000000;fill-opacity:1;fill-rule:evenodd;stroke:#000000;stroke-width:1;stroke-linecap:round;stroke-linejoin:round;stroke-opacity:1"
         d="m 100256200,66890000 3880,19517 11060,16545 16540,11056 19520,3882 h 1700000 l 19520,-3882 16540,-11056 11060,-16545 3880,-19517 v -650000 l -3880,-19517 -11060,-16545 -16540,-11056 -19520,-3882 h -1700000 l -19520,3882 -16540,11056 -11060,16545 -3880,19517 z"
         id="path996" />
      <path
         style="fill:#000000;fill-opacity:1;fill-rule:evenodd;stroke:#000000;stroke-width:1;stroke-linecap:round;stroke-linejoin:round;stroke-opacity:1"
         d="m 100256200,65620000 3880,19517 11060,16545 16540,11056 19520,3882 h 1700000 l 19520,-3882 16540,-11056 11060,-16545 3880,-19517 v -650000 l -3880,-19517 -11060,-16545 -16540,-11056 -19520,-3882 h -1700000 l -19520,3882 -16540,11056 -11060,16545 -3880,19517 z"
         id="path998" />
      <path
         style="fill:#000000;fill-opacity:1;fill-rule:evenodd;stroke:#000000;stroke-width:1;stroke-linecap:round;stroke-linejoin:round;stroke-opacity:1"
         d="m 107556200,65620000 3880,19517 11060,16545 16540,11056 19520,3882 h 1700000 l 19520,-3882 16540,-11056 11060,-16545 3880,-19517 v -650000 l -3880,-19517 -11060,-16545 -16540,-11056 -19520,-3882 h -1700000 l -19520,3882 -16540,11056 -11060,16545 -3880,19517 z"
         id="path1000" />
      <path
         style="fill:#000000;fill-opacity:1;fill-rule:evenodd;stroke:#000000;stroke-width:1;stroke-linecap:round;stroke-linejoin:round;stroke-opacity:1"
         d="m 107556200,66890000 3880,19517 11060,16545 16540,11056 19520,3882 h 1700000 l 19520,-3882 16540,-11056 11060,-16545 3880,-19517 v -650000 l -3880,-19517 -11060,-16545 -16540,-11056 -19520,-3882 h -1700000 l -19520,3882 -16540,11056 -11060,16545 -3880,19517 z"
         id="path1002" />
      <path
         style="fill:#000000;fill-opacity:1;fill-rule:evenodd;stroke:#000000;stroke-width:1;stroke-linecap:round;stroke-linejoin:round;stroke-opacity:1"
         d="m 107556200,68160000 3880,19517 11060,16545 16540,11056 19520,3882 h 1700000 l 19520,-3882 16540,-11056 11060,-16545 3880,-19517 v -650000 l -3880,-19517 -11060,-16545 -16540,-11056 -19520,-3882 h -1700000 l -19520,3882 -16540,11056 -11060,16545 -3880,19517 z"
         id="path1004" />
      <path
         style="fill:#000000;fill-opacity:1;fill-rule:evenodd;stroke:#000000;stroke-width:1;stroke-linecap:round;stroke-linejoin:round;stroke-opacity:1"
         d="m 107556200,69430000 3880,19517 11060,16545 16540,11056 19520,3882 h 1700000 l 19520,-3882 16540,-11056 11060,-16545 3880,-19517 v -650000 l -3880,-19517 -11060,-16545 -16540,-11056 -19520,-3882 h -1700000 l -19520,3882 -16540,11056 -11060,16545 -3880,19517 z"
         id="path1006" />
    </g>
    <g
       id="g1010" />
    <g
       style="fill:#000000;fill-opacity:1;stroke:#000000;stroke-width:1;stroke-linecap:round;stroke-linejoin:round;stroke-opacity:1"
       id="g1020">
      <path
         style="fill:#000000;fill-opacity:1;fill-rule:evenodd;stroke:#000000;stroke-width:1;stroke-linecap:round;stroke-linejoin:round;stroke-opacity:1"
         d="m 97056200,64975000 13397,67352 38152,57099 57099,38152 67352,13397 h 250000 l 67352,-13397 57099,-38152 38152,-57099 13397,-67352 v -250000 l -13397,-67352 -38152,-57099 -57099,-38152 -67352,-13397 h -250000 l -67352,13397 -57099,38152 -38152,57099 -13397,67352 z"
         id="path1012" />
      <path
         style="fill:#000000;fill-opacity:1;fill-rule:evenodd;stroke:#000000;stroke-width:1;stroke-linecap:round;stroke-linejoin:round;stroke-opacity:1"
         d="m 97956200,64975000 13397,67352 38152,57099 57099,38152 67352,13397 h 250000 l 67352,-13397 57099,-38152 38152,-57099 13397,-67352 v -250000 l -13397,-67352 -38152,-57099 -57099,-38152 -67352,-13397 h -250000 l -67352,13397 -57099,38152 -38152,57099 -13397,67352 z"
         id="path1014" />
      <path
         style="fill:#000000;fill-opacity:1;fill-rule:evenodd;stroke:#000000;stroke-width:1;stroke-linecap:round;stroke-linejoin:round;stroke-opacity:1"
         d="m 97956200,65875000 13397,67352 38152,57099 57099,38152 67352,13397 h 250000 l 67352,-13397 57099,-38152 38152,-57099 13397,-67352 v -250000 l -13397,-67352 -38152,-57099 -57099,-38152 -67352,-13397 h -250000 l -67352,13397 -57099,38152 -38152,57099 -13397,67352 z"
         id="path1016" />
      <path
         style="fill:#000000;fill-opacity:1;fill-rule:evenodd;stroke:#000000;stroke-width:1;stroke-linecap:round;stroke-linejoin:round;stroke-opacity:1"
         d="m 97056200,65875000 13397,67352 38152,57099 57099,38152 67352,13397 h 250000 l 67352,-13397 57099,-38152 38152,-57099 13397,-67352 v -250000 l -13397,-67352 -38152,-57099 -57099,-38152 -67352,-13397 h -250000 l -67352,13397 -57099,38152 -38152,57099 -13397,67352 z"
         id="path1018" />
    </g>
    <g
       id="g1022" />
    <g
       style="fill:#000000;fill-opacity:1;stroke:#000000;stroke-width:1;stroke-linecap:round;stroke-linejoin:round;stroke-opacity:1"
       id="g1032">
      <path
         style="fill:#000000;fill-opacity:1;fill-rule:evenodd;stroke:#000000;stroke-width:1;stroke-linecap:round;stroke-linejoin:round;stroke-opacity:1"
         d="m 108964160,58749937 -65030,-22074 -68520,4492 -61590,30373 -45280,51630 -125000,216506 -22080,65027 4500,68525 30370,61591 51630,45278 216500,125000 65030,22074 68530,-4492 61590,-30373 45280,-51630 125000,-216506 22070,-65027 -4490,-68525 -30380,-61591 -51630,-45278 z"
         id="path1024" />
      <path
         style="fill:#000000;fill-opacity:1;fill-rule:evenodd;stroke:#000000;stroke-width:1;stroke-linecap:round;stroke-linejoin:round;stroke-opacity:1"
         d="m 108514160,59529359 -65030,-22074 -68520,4492 -61590,30373 -45280,51630 -125000,216506 -22080,65027 4500,68525 30370,61591 51630,45278 216500,125000 65030,22074 68530,-4492 61590,-30373 45280,-51630 125000,-216506 22070,-65027 -4490,-68525 -30380,-61591 -51630,-45278 z"
         id="path1026" />
      <path
         style="fill:#000000;fill-opacity:1;fill-rule:evenodd;stroke:#000000;stroke-width:1;stroke-linecap:round;stroke-linejoin:round;stroke-opacity:1"
         d="m 107734740,59079359 -65030,-22074 -68530,4492 -61590,30373 -45270,51630 -125000,216506 -22080,65027 4490,68525 30380,61591 51630,45278 216500,125000 65030,22074 68520,-4492 61600,-30373 45270,-51630 125000,-216506 22080,-65027 -4490,-68525 -30380,-61591 -51630,-45278 z"
         id="path1028" />
      <path
         style="fill:#000000;fill-opacity:1;fill-rule:evenodd;stroke:#000000;stroke-width:1;stroke-linecap:round;stroke-linejoin:round;stroke-opacity:1"
         d="m 108184740,58299937 -65030,-22074 -68530,4492 -61590,30373 -45270,51630 -125000,216506 -22080,65027 4490,68525 30380,61591 51630,45278 216500,125000 65030,22074 68520,-4492 61600,-30373 45270,-51630 125000,-216506 22080,-65027 -4490,-68525 -30380,-61591 -51630,-45278 z"
         id="path1030" />
    </g>
    <g
       id="g1034" />
    <g
       style="fill:#000000;fill-opacity:1;stroke:#000000;stroke-width:1;stroke-linecap:round;stroke-linejoin:round;stroke-opacity:1"
       id="g1044">
      <path
         style="fill:#000000;fill-opacity:1;fill-rule:evenodd;stroke:#000000;stroke-width:1;stroke-linecap:round;stroke-linejoin:round;stroke-opacity:1"
         d="m 97932137,68894042 45278,51630 61591,30373 68525,4492 65027,-22074 216506,-125000 51630,-45278 30373,-61591 4492,-68525 -22074,-65027 -125000,-216506 -45278,-51630 -61591,-30373 -68525,-4492 -65027,22074 -216506,125000 -51630,45278 -30373,61591 -4492,68525 22074,65027 z"
         id="path1036" />
      <path
         style="fill:#000000;fill-opacity:1;fill-rule:evenodd;stroke:#000000;stroke-width:1;stroke-linecap:round;stroke-linejoin:round;stroke-opacity:1"
         d="m 98711559,68444042 45278,51630 61591,30373 68525,4492 65027,-22074 216506,-125000 51630,-45278 30373,-61591 4492,-68525 -22074,-65027 -125000,-216506 -45278,-51630 -61591,-30373 -68525,-4492 -65027,22074 -216506,125000 -51630,45278 -30373,61591 -4492,68525 22074,65027 z"
         id="path1038" />
      <path
         style="fill:#000000;fill-opacity:1;fill-rule:evenodd;stroke:#000000;stroke-width:1;stroke-linecap:round;stroke-linejoin:round;stroke-opacity:1"
         d="m 99161559,69223464 45278,51630 61591,30373 68525,4492 65027,-22074 216506,-125000 51630,-45278 30373,-61591 4492,-68525 -22074,-65027 -125000,-216506 -45278,-51630 -61591,-30373 -68525,-4492 -65027,22074 -216506,125000 -51630,45278 -30373,61591 -4492,68525 22074,65027 z"
         id="path1040" />
      <path
         style="fill:#000000;fill-opacity:1;fill-rule:evenodd;stroke:#000000;stroke-width:1;stroke-linecap:round;stroke-linejoin:round;stroke-opacity:1"
         d="m 98382137,69673464 45278,51630 61591,30373 68525,4492 65027,-22074 216506,-125000 51630,-45278 30373,-61591 4492,-68525 -22074,-65027 -125000,-216506 -45278,-51630 -61591,-30373 -68525,-4492 -65027,22074 -216506,125000 -51630,45278 -30373,61591 -4492,68525 22074,65027 z"
         id="path1042" />
    </g>
    <g
       id="g1046" />
    <g
       style="fill:#000000;fill-opacity:1;stroke:#000000;stroke-width:1;stroke-linecap:round;stroke-linejoin:round;stroke-opacity:1"
       id="g1056">
      <path
         style="fill:#000000;fill-opacity:1;fill-rule:evenodd;stroke:#000000;stroke-width:1;stroke-linecap:round;stroke-linejoin:round;stroke-opacity:1"
         d="m 111357260,69456958 22080,-65027 -4490,-68525 -30380,-61591 -51630,-45278 -216500,-125000 -65030,-22074 -68530,4492 -61590,30373 -45270,51630 -125000,216506 -22080,65027 4490,68525 30380,61591 51630,45278 216500,125000 65030,22074 68520,-4492 61600,-30373 45270,-51630 z"
         id="path1048" />
      <path
         style="fill:#000000;fill-opacity:1;fill-rule:evenodd;stroke:#000000;stroke-width:1;stroke-linecap:round;stroke-linejoin:round;stroke-opacity:1"
         d="m 110577840,69006958 22080,-65027 -4500,-68525 -30370,-61591 -51630,-45278 -216510,-125000 -65020,-22074 -68530,4492 -61590,30373 -45280,51630 -125000,216506 -22070,65027 4490,68525 30370,61591 51630,45278 216510,125000 65030,22074 68520,-4492 61590,-30373 45280,-51630 z"
         id="path1050" />
      <path
         style="fill:#000000;fill-opacity:1;fill-rule:evenodd;stroke:#000000;stroke-width:1;stroke-linecap:round;stroke-linejoin:round;stroke-opacity:1"
         d="m 111027840,68227536 22080,-65027 -4500,-68525 -30370,-61591 -51630,-45278 -216510,-125000 -65020,-22074 -68530,4492 -61590,30373 -45280,51630 -125000,216506 -22070,65027 4490,68525 30370,61591 51630,45278 216510,125000 65030,22074 68520,-4492 61590,-30373 45280,-51630 z"
         id="path1052" />
      <path
         style="fill:#000000;fill-opacity:1;fill-rule:evenodd;stroke:#000000;stroke-width:1;stroke-linecap:round;stroke-linejoin:round;stroke-opacity:1"
         d="m 111807260,68677536 22080,-65027 -4490,-68525 -30380,-61591 -51630,-45278 -216500,-125000 -65030,-22074 -68530,4492 -61590,30373 -45270,51630 -125000,216506 -22080,65027 4490,68525 30380,61591 51630,45278 216500,125000 65030,22074 68520,-4492 61600,-30373 45270,-51630 z"
         id="path1054" />
    </g>
    <g
       id="g1058" />
    <g
       style="fill:#000000;fill-opacity:1;stroke:#000000;stroke-width:1;stroke-linecap:round;stroke-linejoin:round;stroke-opacity:1"
       id="g1068">
      <path
         style="fill:#000000;fill-opacity:1;fill-rule:evenodd;stroke:#000000;stroke-width:1;stroke-linecap:round;stroke-linejoin:round;stroke-opacity:1"
         d="m 98257137,61143042 -22074,65027 4492,68525 30373,61591 51630,45278 216506,125000 65027,22074 68525,-4492 61591,-30373 45278,-51630 125000,-216506 22074,-65027 -4492,-68525 -30373,-61591 -51630,-45278 -216506,-125000 -65027,-22074 -68525,4492 -61591,30373 -45278,51630 z"
         id="path1060" />
      <path
         style="fill:#000000;fill-opacity:1;fill-rule:evenodd;stroke:#000000;stroke-width:1;stroke-linecap:round;stroke-linejoin:round;stroke-opacity:1"
         d="m 99036559,61593042 -22074,65027 4492,68525 30373,61591 51630,45278 216506,125000 65027,22074 68525,-4492 61591,-30373 45278,-51630 125000,-216506 22074,-65027 -4492,-68525 -30373,-61591 -51630,-45278 -216506,-125000 -65027,-22074 -68525,4492 -61591,30373 -45278,51630 z"
         id="path1062" />
      <path
         style="fill:#000000;fill-opacity:1;fill-rule:evenodd;stroke:#000000;stroke-width:1;stroke-linecap:round;stroke-linejoin:round;stroke-opacity:1"
         d="m 98586559,62372464 -22074,65027 4492,68525 30373,61591 51630,45278 216506,125000 65027,22074 68525,-4492 61591,-30373 45278,-51630 125000,-216506 22074,-65027 -4492,-68525 -30373,-61591 -51630,-45278 -216506,-125000 -65027,-22074 -68525,4492 -61591,30373 -45278,51630 z"
         id="path1064" />
      <path
         style="fill:#000000;fill-opacity:1;fill-rule:evenodd;stroke:#000000;stroke-width:1;stroke-linecap:round;stroke-linejoin:round;stroke-opacity:1"
         d="m 97807137,61922464 -22074,65027 4492,68525 30373,61591 51630,45278 216506,125000 65027,22074 68525,-4492 61591,-30373 45278,-51630 125000,-216506 22074,-65027 -4492,-68525 -30373,-61591 -51630,-45278 -216506,-125000 -65027,-22074 -68525,4492 -61591,30373 -45278,51630 z"
         id="path1066" />
    </g>
    <g
       id="g1070" />
    <g
       style="fill:#000000;fill-opacity:1;stroke:#000000;stroke-width:1;stroke-linecap:round;stroke-linejoin:round;stroke-opacity:1"
       id="g1074">
      <circle
         cx="99407200"
         cy="66800000"
         r="551000"
         id="circle1072" />
    </g>
    <g
       style="fill:#000000;fill-opacity:1;stroke:#000000;stroke-width:21200;stroke-linecap:round;stroke-linejoin:round;stroke-opacity:1"
       id="g1076" />
    <g
       id="g1078" />
    <g
       style="fill:#000000;fill-opacity:1;stroke:#000000;stroke-width:21200;stroke-linecap:round;stroke-linejoin:round;stroke-opacity:1"
       id="g1080" />
    <g
       style="fill:#000000;fill-opacity:1;stroke:#000000;stroke-width:1;stroke-linecap:round;stroke-linejoin:round;stroke-opacity:1"
       id="g1090">
      <path
         style="fill:#000000;fill-opacity:1;fill-rule:evenodd;stroke:#000000;stroke-width:1;stroke-linecap:round;stroke-linejoin:round;stroke-opacity:1"
         d="m 104482200,73051000 67350,-13397 57100,-38152 38150,-57099 13400,-67352 v -250000 l -13400,-67352 -38150,-57099 -57100,-38152 -67350,-13397 h -250000 l -67350,13397 -57100,38152 -38150,57099 -13400,67352 v 250000 l 13400,67352 38150,57099 57100,38152 67350,13397 z"
         id="path1082" />
      <path
         style="fill:#000000;fill-opacity:1;fill-rule:evenodd;stroke:#000000;stroke-width:1;stroke-linecap:round;stroke-linejoin:round;stroke-opacity:1"
         d="m 104482200,72151000 67350,-13397 57100,-38152 38150,-57099 13400,-67352 v -250000 l -13400,-67352 -38150,-57099 -57100,-38152 -67350,-13397 h -250000 l -67350,13397 -57100,38152 -38150,57099 -13400,67352 v 250000 l 13400,67352 38150,57099 57100,38152 67350,13397 z"
         id="path1084" />
      <path
         style="fill:#000000;fill-opacity:1;fill-rule:evenodd;stroke:#000000;stroke-width:1;stroke-linecap:round;stroke-linejoin:round;stroke-opacity:1"
         d="m 105382200,72151000 67350,-13397 57100,-38152 38150,-57099 13400,-67352 v -250000 l -13400,-67352 -38150,-57099 -57100,-38152 -67350,-13397 h -250000 l -67350,13397 -57100,38152 -38150,57099 -13400,67352 v 250000 l 13400,67352 38150,57099 57100,38152 67350,13397 z"
         id="path1086" />
      <path
         style="fill:#000000;fill-opacity:1;fill-rule:evenodd;stroke:#000000;stroke-width:1;stroke-linecap:round;stroke-linejoin:round;stroke-opacity:1"
         d="m 105382200,73051000 67350,-13397 57100,-38152 38150,-57099 13400,-67352 v -250000 l -13400,-67352 -38150,-57099 -57100,-38152 -67350,-13397 h -250000 l -67350,13397 -57100,38152 -38150,57099 -13400,67352 v 250000 l 13400,67352 38150,57099 57100,38152 67350,13397 z"
         id="path1088" />
    </g>
    <g
       id="g1092" />
    <g
       id="g1094" />
    <g
       style="fill:#000000;fill-opacity:1;stroke:#000000;stroke-width:1;stroke-linecap:round;stroke-linejoin:round;stroke-opacity:1"
       id="g1104">
      <path
         style="fill:#000000;fill-opacity:1;fill-rule:evenodd;stroke:#000000;stroke-width:1;stroke-linecap:round;stroke-linejoin:round;stroke-opacity:1"
         d="m 111682260,61705958 -45270,-51630 -61600,-30373 -68520,-4492 -65030,22074 -216500,125000 -51630,45278 -30380,61591 -4490,68525 22080,65027 125000,216506 45270,51630 61590,30373 68530,4492 65030,-22074 216500,-125000 51630,-45278 30380,-61591 4490,-68525 -22080,-65027 z"
         id="path1096" />
      <path
         style="fill:#000000;fill-opacity:1;fill-rule:evenodd;stroke:#000000;stroke-width:1;stroke-linecap:round;stroke-linejoin:round;stroke-opacity:1"
         d="m 110902840,62155958 -45280,-51630 -61590,-30373 -68520,-4492 -65030,22074 -216510,125000 -51630,45278 -30370,61591 -4490,68525 22070,65027 125000,216506 45280,51630 61590,30373 68530,4492 65020,-22074 216510,-125000 51630,-45278 30370,-61591 4500,-68525 -22080,-65027 z"
         id="path1098" />
      <path
         style="fill:#000000;fill-opacity:1;fill-rule:evenodd;stroke:#000000;stroke-width:1;stroke-linecap:round;stroke-linejoin:round;stroke-opacity:1"
         d="m 110452840,61376536 -45280,-51630 -61590,-30373 -68520,-4492 -65030,22074 -216510,125000 -51630,45278 -30370,61591 -4490,68525 22070,65027 125000,216506 45280,51630 61590,30373 68530,4492 65020,-22074 216510,-125000 51630,-45278 30370,-61591 4500,-68525 -22080,-65027 z"
         id="path1100" />
      <path
         style="fill:#000000;fill-opacity:1;fill-rule:evenodd;stroke:#000000;stroke-width:1;stroke-linecap:round;stroke-linejoin:round;stroke-opacity:1"
         d="m 111232260,60926536 -45270,-51630 -61600,-30373 -68520,-4492 -65030,22074 -216500,125000 -51630,45278 -30380,61591 -4490,68525 22080,65027 125000,216506 45270,51630 61590,30373 68530,4492 65030,-22074 216500,-125000 51630,-45278 30380,-61591 4490,-68525 -22080,-65027 z"
         id="path1102" />
    </g>
    <g
       id="g1106" />
    <g
       id="g1108" />
    <g
       style="fill:#000000;fill-opacity:1;stroke:#000000;stroke-width:1;stroke-linecap:round;stroke-linejoin:round;stroke-opacity:1"
       id="g1112">
      <circle
         cx="110207200"
         cy="66800000"
         r="551000"
         id="circle1110" />
    </g>
    <g
       style="fill:#000000;fill-opacity:1;stroke:#000000;stroke-width:21200;stroke-linecap:round;stroke-linejoin:round;stroke-opacity:1"
       id="g1114" />
    <g
       id="g1116" />
    <g
       id="g1118" />
    <g
       style="fill:#000000;fill-opacity:1;stroke:#000000;stroke-width:21200;stroke-linecap:round;stroke-linejoin:round;stroke-opacity:1"
       id="g1120" />
    <g
       style="fill:#000000;fill-opacity:1;stroke:#000000;stroke-width:1;stroke-linecap:round;stroke-linejoin:round;stroke-opacity:1"
       id="g1130">
      <path
         style="fill:#000000;fill-opacity:1;fill-rule:evenodd;stroke:#000000;stroke-width:1;stroke-linecap:round;stroke-linejoin:round;stroke-opacity:1"
         d="m 101213160,58424937 -51630,45278 -30370,61591 -4500,68525 22080,65027 125000,216506 45280,51630 61590,30373 68520,4492 65030,-22074 216500,-125000 51630,-45278 30380,-61591 4490,-68525 -22070,-65027 -125000,-216506 -45280,-51630 -61590,-30373 -68530,-4492 -65030,22074 z"
         id="path1122" />
      <path
         style="fill:#000000;fill-opacity:1;fill-rule:evenodd;stroke:#000000;stroke-width:1;stroke-linecap:round;stroke-linejoin:round;stroke-opacity:1"
         d="m 101663160,59204359 -51630,45278 -30370,61591 -4500,68525 22080,65027 125000,216506 45280,51630 61590,30373 68520,4492 65030,-22074 216500,-125000 51630,-45278 30380,-61591 4490,-68525 -22070,-65027 -125000,-216506 -45280,-51630 -61590,-30373 -68530,-4492 -65030,22074 z"
         id="path1124" />
      <path
         style="fill:#000000;fill-opacity:1;fill-rule:evenodd;stroke:#000000;stroke-width:1;stroke-linecap:round;stroke-linejoin:round;stroke-opacity:1"
         d="m 100883740,59654359 -51630,45278 -30380,61591 -4490,68525 22080,65027 125000,216506 45270,51630 61590,30373 68530,4492 65030,-22074 216500,-125000 51630,-45278 30380,-61591 4490,-68525 -22080,-65027 -125000,-216506 -45270,-51630 -61600,-30373 -68520,-4492 -65030,22074 z"
         id="path1126" />
      <path
         style="fill:#000000;fill-opacity:1;fill-rule:evenodd;stroke:#000000;stroke-width:1;stroke-linecap:round;stroke-linejoin:round;stroke-opacity:1"
         d="m 100433740,58874937 -51630,45278 -30380,61591 -4490,68525 22080,65027 125000,216506 45270,51630 61590,30373 68530,4492 65030,-22074 216500,-125000 51630,-45278 30380,-61591 4490,-68525 -22080,-65027 -125000,-216506 -45270,-51630 -61600,-30373 -68520,-4492 -65030,22074 z"
         id="path1128" />
    </g>
    <g
       id="g1132" />
    <g
       style="fill:#000000;fill-opacity:1;stroke:#000000;stroke-width:1;stroke-linecap:round;stroke-linejoin:round;stroke-opacity:1"
       id="g1138">
      <path
         style="fill:#000000;fill-opacity:1;fill-rule:evenodd;stroke:#000000;stroke-width:1;stroke-linecap:round;stroke-linejoin:round;stroke-opacity:1"
         d="m 102906200,70875000 13400,67352 38150,57099 57100,38152 67350,13397 h 250000 l 67350,-13397 57100,-38152 38150,-57099 13400,-67352 v -350000 l -13400,-67352 -38150,-57099 -57100,-38152 -67350,-13397 h -250000 l -67350,13397 -57100,38152 -38150,57099 -13400,67352 z"
         id="path1134" />
      <path
         style="fill:#000000;fill-opacity:1;fill-rule:evenodd;stroke:#000000;stroke-width:1;stroke-linecap:round;stroke-linejoin:round;stroke-opacity:1"
         d="m 103906200,70875000 13400,67352 38150,57099 57100,38152 67350,13397 h 250000 l 67350,-13397 57100,-38152 38150,-57099 13400,-67352 v -350000 l -13400,-67352 -38150,-57099 -57100,-38152 -67350,-13397 h -250000 l -67350,13397 -57100,38152 -38150,57099 -13400,67352 z"
         id="path1136" />
    </g>
    <g
       id="g1140" />
    <g
       id="g1142" />
    <g
       id="g1144" />
  </g>
  <metadata
     id="metadata1435">
    <rdf:RDF>
      <cc:Work
         rdf:about="">
        <dc:title>SVG Picture created as ringDemo-F_Mask.svg date 2023/06/20 12:35:41 </dc:title>
      </cc:Work>
    </rdf:RDF>
  </metadata>
</svg>
